<svg version="1.1" xmlns="http://www.w3.org/2000/svg" style="display: block;" viewBox="0 0 2048 2048" width="1024" height="1024" preserveAspectRatio="none">
<path transform="translate(0,0)" fill="rgb(231,188,66)" d="M 1009.98 236.279 C 1070.54 234.785 1132.55 254.548 1169.62 306.127 C 1226.17 385.624 1278.07 469.674 1324.91 555.229 C 1350.2 601.436 1366.69 652.105 1387.94 699.909 L 1561.62 1094.27 L 1705.45 1413.67 L 1750.36 1510.42 C 1769.89 1552.93 1788.13 1587.48 1787.25 1636.14 C 1784.55 1784.22 1620.1 1860.67 1500.24 1780.42 C 1439.54 1739.78 1418.72 1681.74 1385.05 1621.51 C 1326.81 1518.04 1270.5 1413.5 1216.14 1307.94 C 1203.16 1283.29 1189.04 1259.48 1175.58 1235.16 C 1160.11 1207.2 1148.03 1178.09 1129.86 1151.75 C 1124.26 1143.64 1118.12 1132.42 1113.56 1123.66 L 1051.79 1004.53 C 1045.05 991.729 1036.36 971.331 1028.25 960.489 L 1027.36 959.304 C 1012.7 970.225 1014.05 982.252 1005.96 997.173 L 940.507 1117.94 C 928.91 1139.42 917.215 1163.44 904.632 1184.2 C 897.281 1194.48 887.017 1219.12 872.019 1219.39 C 859.491 1219.62 813.095 1232.67 804.903 1227.55 C 800.187 1217.92 830.815 1158.38 837.187 1148.84 C 873.282 1094.84 903.462 1036.81 931.665 978.339 C 936.839 967.612 944.092 957.015 949.657 946.302 C 969.578 907.961 987.514 868.421 1008.73 830.787 C 1011.66 825.619 1021.92 795.885 1031.15 805.802 C 1034.34 809.224 1039.76 825.366 1042.31 829.959 C 1044.13 833.349 1045.9 838.894 1047.93 842.335 C 1073.34 887.442 1094.74 934.951 1119.4 980.341 C 1136.48 1011.79 1156.53 1042.74 1173.15 1074.66 C 1185.54 1098.45 1195.61 1124.41 1208.77 1147.8 C 1225.32 1177.2 1240.38 1207.21 1256.19 1236.96 C 1268.06 1259.3 1283.38 1281.44 1294.91 1304 C 1341.09 1394.31 1392.73 1481.58 1439.13 1571.7 C 1451.48 1595.41 1464.22 1618.92 1477.35 1642.22 C 1499.19 1680.63 1516.66 1711.77 1559.28 1731.01 C 1581.36 1739.34 1586.28 1740.31 1609.99 1740.32 C 1662.24 1740.84 1706.32 1698.69 1715.21 1648.24 C 1722.5 1606.83 1702.33 1576.44 1686.52 1540.93 L 1628.24 1412.38 L 1493.97 1113.1 L 1423.82 957.834 C 1413.41 934.363 1408.62 910.957 1393.56 890.187 C 1384.99 903.946 1385.1 938.272 1382.21 956.755 C 1372.99 1017.69 1352.68 1075.39 1321.21 1127.92 C 1293.56 1174.07 1290.17 1189.28 1263.54 1130.57 C 1261.31 1125.64 1256.87 1120.34 1254.83 1114.9 C 1253.96 1112.63 1253.59 1110.2 1253.75 1107.78 C 1254.32 1099.47 1283.27 1054.01 1288.52 1039.56 C 1340.46 896.939 1328.55 726.809 1263.85 590.241 C 1257.51 576.85 1247.77 564.137 1240.53 551.153 C 1219.72 515.2 1198.98 479.126 1176.8 444.007 C 1155.15 410.421 1131.29 368.651 1104.06 340.12 C 1084.77 319.896 1058.28 308.101 1030.35 307.299 C 962.739 306.022 938.169 348.425 904.575 399.028 C 876.816 440.405 850.686 482.852 826.244 526.271 C 814.929 545.945 798.003 572.354 788.812 592.589 C 758.181 660.027 730.514 729.132 700.445 796.865 L 502.127 1237.74 C 490.872 1262.22 467.845 1315.34 457.874 1339.55 C 453.718 1349.64 384.678 1378.8 374.598 1391.71 C 371.732 1395.38 361.746 1404.16 356.891 1404.67 C 354.059 1403.57 354.296 1403.51 352.603 1400.92 C 351.908 1395.59 355.711 1389.63 357.923 1384.75 C 398.245 1295.8 439.41 1207.45 478.513 1117.96 L 538.887 981.929 L 634.527 767.858 L 680.171 662.54 C 693.58 630.936 706.752 596.938 721.894 566.23 C 752.97 503.206 791.327 442.038 829.049 382.791 C 861.207 332.282 895.009 274.865 952.782 250.888 C 974.017 241.936 988.565 241.481 1009.98 236.279 z"/>
<path transform="translate(0,0)" fill="rgb(231,188,66)" d="M 1097.61 1219.46 C 1101.67 1219.47 1105.74 1219.55 1109.81 1219.7 C 1117.63 1227.42 1119.71 1236.15 1124.58 1245.76 C 1129.83 1256.13 1135.97 1266.01 1140.19 1276.84 C 1136.78 1280.02 1133.46 1282.56 1129.15 1284.46 C 1114.96 1290.71 1098.61 1294.02 1083.71 1298.25 C 1074.6 1300.84 1065.75 1304.28 1056.59 1306.72 C 1033.1 1312.97 1008.86 1317.91 985.026 1322.69 C 979.272 1323.85 973.488 1326.21 967.789 1327.06 C 964.355 1327.57 960.828 1327.09 957.39 1327.47 C 953.2 1327.95 949.027 1329.54 944.814 1330.22 C 927.538 1333.02 910.138 1335.86 892.776 1338.03 C 879.953 1339.63 867.123 1339.75 854.347 1341.97 C 834.778 1345.37 815.556 1350.27 796.073 1353.79 C 786.61 1355.5 776.937 1355.9 767.449 1357.6 C 740.205 1362.49 712.786 1369.49 685.927 1376.21 C 675.174 1378.9 664.706 1383.82 654.015 1387.06 C 640.922 1391.04 627.61 1394.27 614.61 1398.57 C 586.285 1407.95 557.57 1419.83 530.637 1432.35 C 511.167 1441.39 493.632 1448.58 475.169 1460.15 C 438.082 1483.4 403.452 1508.78 375.222 1542.63 C 372.069 1546.41 369.704 1550.7 366.687 1554.55 C 364.311 1557.58 360.989 1559.86 358.695 1562.91 C 351.407 1572.61 342.471 1595.01 339.821 1606.77 C 333.937 1632.89 337.936 1666.46 352.701 1689.17 C 368.092 1712.84 393.73 1733.27 421.816 1738.87 C 462.812 1747.04 503.587 1730.45 532.886 1701.9 C 559.779 1675.69 588.525 1613.85 607.494 1579.04 L 646.512 1506.64 C 653.58 1493.74 660.943 1481.01 668.223 1467.89 C 675.153 1456.44 684.859 1429.05 695.67 1422.21 C 715.083 1410.54 739.688 1411.53 761.166 1405.75 C 803.087 1394.47 767.893 1436.57 760.941 1451.34 L 663.069 1628.55 C 620.168 1706.7 591.793 1777.16 497.28 1805.11 C 357.532 1846.44 231.764 1717.07 272.651 1579.48 C 295.15 1503.77 366.225 1443.46 431.266 1403.48 C 521.097 1348.64 630.66 1314.24 734.187 1296.96 C 748.276 1294.59 762.795 1288.17 776.995 1285.65 C 784.868 1284.26 792.908 1283.54 800.837 1282.39 L 855.796 1274.05 C 901.287 1267.24 946.603 1259.3 991.701 1250.24 C 1014.46 1245.73 1041.96 1237.48 1064.69 1231.49 C 1074.53 1228.9 1086.22 1222.42 1097.61 1219.46 z"/>
</svg>